HIERARCHY
ROOT Hips
{
	OFFSET 0.00000 0.00000 0.00000
	CHANNELS 6 Xposition Yposition Zposition Zrotation Yrotation Xrotation 
	JOINT LHipJoint
	{
		OFFSET 0 0 0
		CHANNELS 3 Zrotation Yrotation Xrotation
		JOINT LeftHip
		{
			OFFSET 1.84395 -1.68683 0.74144
			CHANNELS 3 Zrotation Yrotation Xrotation
			JOINT LeftKnee
			{
				OFFSET 2.27037 -6.23779 0.00000
				CHANNELS 3 Zrotation Yrotation Xrotation
				JOINT LeftAnkle
				{
					OFFSET 2.56918 -7.05877 0.00000
					CHANNELS 3 Zrotation Yrotation Xrotation
					JOINT LeftToe
					{
						OFFSET 0.22276 -0.61202 1.71784
						CHANNELS 3 Zrotation Yrotation Xrotation
						End Site
						{
							OFFSET 0.00000 -0.00000 0.91613
						}
					}
				}
			}
		}
	}
	JOINT RHipJoint
	{
		OFFSET 0 0 0
		CHANNELS 3 Zrotation Yrotation Xrotation
		JOINT RightHip
		{
			OFFSET -1.76833 -1.68684 0.74144
			CHANNELS 3 Zrotation Yrotation Xrotation
			JOINT RightKnee
			{
				OFFSET -2.49360 -6.85110 0.00000
				CHANNELS 3 Zrotation Yrotation Xrotation
				JOINT RightAnkle
				{
					OFFSET -2.55538 -7.02085 0.00000
					CHANNELS 3 Zrotation Yrotation Xrotation
					JOINT RightToe
					{
						OFFSET -0.21516 -0.59115 1.68050
						CHANNELS 3 Zrotation Yrotation Xrotation
						End Site
						{
							OFFSET -0.00000 -0.00000 0.89604
						}
					}
				}
			}
		}
	}
	JOINT lowerback
	{
		OFFSET 0 0 0
		CHANNELS 3 Zrotation Yrotation Xrotation
		JOINT Chest
		{
			OFFSET 0.06382 1.72312 -0.19613
			CHANNELS 3 Zrotation Yrotation Xrotation
			JOINT Chest2
			{
				OFFSET -0.00055 1.73507 0.23859
				CHANNELS 3 Zrotation Yrotation Xrotation
				JOINT lowerneck
				{
					OFFSET 0 0 0
					CHANNELS 3 Zrotation Yrotation Xrotation
					JOINT Neck
					{
						OFFSET 0.03638 1.65562 0.09633
						CHANNELS 3 Zrotation Yrotation Xrotation
						JOINT Head
						{
							OFFSET 0.06388 1.62807 -0.32386
							CHANNELS 3 Zrotation Yrotation Xrotation
							End Site
							{
								OFFSET 0.00995 1.67644 -0.12021
							}
						}
					}
				}
				JOINT LeftCollar
				{
					OFFSET 0 0 0
					CHANNELS 3 Zrotation Yrotation Xrotation
					JOINT LeftShoulder
					{
						OFFSET 3.09648 1.42991 0.28122
CHANNELS 3 Zrotation Xrotation Yrotation
						JOINT LeftElbow
						{
OFFSET 0 -5.118780 -0.000000
CHANNELS 3 Zrotation Xrotation Yrotation
							JOINT LeftWrist
							{
OFFSET 0 -3.599710 0.000000
CHANNELS 3 Zrotation Xrotation Yrotation
								JOINT lhand
								{
									OFFSET 0 0 0
CHANNELS 3 Zrotation Xrotation Yrotation
									JOINT LFingers
									{
OFFSET 0 -0.628770 0.000000
CHANNELS 3 Zrotation Xrotation Yrotation
										End Site
										{
OFFSET 0 -0.506930 0.000000
										}
									}
								}
								JOINT LThumb
								{
OFFSET 0 0.000000 0.000000
CHANNELS 3 Zrotation Xrotation Yrotation
									End Site
									{
OFFSET 0 -0.514670 0.514670
									}
								}
							}
						}
					}
				}
				JOINT RightCollar
				{
					OFFSET 0 0 0
					CHANNELS 3 Zrotation Yrotation Xrotation
					JOINT RightShoulder
					{
						OFFSET -3.33565 1.14597 0.05047
CHANNELS 3 Zrotation Xrotation Yrotation
						JOINT RightElbow
						{
OFFSET 0 -5.490200 0.000000
CHANNELS 3 Zrotation Xrotation Yrotation
							JOINT RightWrist
							{
OFFSET 0 -3.206590 -0.000000
CHANNELS 3 Zrotation Xrotation Yrotation
								JOINT rhand
								{
									OFFSET 0 0 0
CHANNELS 3 Zrotation Xrotation Yrotation
									JOINT RFingers
									{
OFFSET 0 -0.691880 0.000000
CHANNELS 3 Zrotation Xrotation Yrotation
										End Site
										{
OFFSET 0 -0.557810 0.000000
										}
									}
								}
								JOINT RThumb
								{
OFFSET 0 0.000000 0.000000
CHANNELS 3 Zrotation Xrotation Yrotation
									End Site
									{
OFFSET 0 -0.566330 0.566330
									}
								}
							}
						}
					}
				}
			}
		}
	}
}
MOTION
Frames: 8
Frame Time: 0.008333333333333333
-0.329224 17.624823 8.320640 -6.710382 -23.930908 30.036843 0.000000 0.000000 0.000000 -10.321010 -0.165293 -7.535400 0.576328 -4.861363 -13.513664 2.588729 9.302218 -34.779417 7.885701 16.034502 52.149806 0.000000 0.000000 0.000000 4.753935 43.396148 -22.360323 -0.026109 -1.043773 2.869176 0.977794 -17.414783 -9.583422 -0.239154 3.147259 -8.688831 8.443802 -5.013144 8.339534 6.745994 -5.065374 -5.911573 3.583917 -2.793732 -11.275683 4.597994 1.524564 -22.539606 -9.184616 2.206812 11.637710 -3.531390 0.348291 7.411639 0.000000 0.000000 0.000000 -65.768021 -67.616247 -114.017399 26.445214 -37.644892 9.158235 57.878791 -48.700445 4.746282 0.000000 0.000000 0.000000 -7.125000 0.000000 0.000000 22.177649 21.270168 13.660980 0.000000 0.000000 0.000000 32.347783 -83.137889 78.618921 -25.345034 -36.554550 -8.494573 37.417282 -37.115784 32.238904 0.000000 0.000000 0.000000 7.125000 0.000000 0.000000 66.089857 50.949632 -15.487448
-0.420417 17.620198 8.275212 -7.368361 -24.015433 29.907168 0.000000 0.000000 0.000000 -9.500121 0.082046 -7.336134 0.542197 -4.717767 -13.105292 2.573770 9.820323 -35.011501 7.757731 15.938106 51.685275 0.000000 0.000000 0.000000 6.866192 41.971848 -22.118326 -0.027911 -1.078582 2.965088 0.720923 -15.116731 -8.753985 -0.246525 3.195029 -8.822285 8.361091 -4.341901 8.539285 6.265808 -4.198078 -5.696481 2.929902 -2.385938 -11.162733 4.400904 1.286209 -22.934546 -8.529589 1.884138 12.531883 -3.336130 0.231901 7.735413 0.000000 0.000000 0.000000 -62.611885 -68.350902 -109.800167 27.223542 -38.391489 9.637576 56.272980 -46.191011 3.705290 0.000000 0.000000 0.000000 -7.125000 0.000000 0.000000 21.505189 23.336177 12.072864 0.000000 0.000000 0.000000 42.927630 -80.311508 84.620056 -26.528576 -37.725363 -9.209356 35.877897 -33.445632 32.318011 0.000000 0.000000 0.000000 7.125000 0.000000 0.000000 65.200793 51.275806 -15.742355
-0.497013 17.612602 8.241745 -7.589260 -23.340447 29.361534 0.000000 0.000000 0.000000 -8.724869 -0.415728 -6.520524 0.551379 -4.756766 -13.216024 2.591205 10.210695 -35.346361 7.728309 15.915700 51.577883 0.000000 0.000000 0.000000 8.322784 41.652976 -20.830473 -0.020087 -0.914583 2.513973 0.732254 -15.202987 -8.650325 -0.239246 3.147997 -8.690951 8.413717 -3.841166 8.788112 5.571245 -3.541745 -5.630922 2.028577 -2.100824 -11.267351 4.257404 0.844343 -22.841830 -7.888270 1.252532 13.079170 -3.184765 -0.011325 7.848211 0.000000 0.000000 0.000000 -60.567801 -69.360372 -106.847143 26.627289 -37.821328 9.269706 52.362212 -39.596699 -1.558483 0.000000 0.000000 0.000000 -7.125000 0.000000 0.000000 20.496883 32.018821 6.906438 0.000000 0.000000 0.000000 22.770138 -79.394197 72.534125 -30.160145 -41.030221 -11.514613 28.656758 -39.677043 37.917392 0.000000 0.000000 0.000000 7.125000 0.000000 0.000000 66.552083 55.940462 -25.571117
-0.563036 17.612005 8.192164 -7.985383 -22.472651 29.305849 0.000000 0.000000 0.000000 -7.651819 -1.062478 -6.185577 0.569195 -4.831914 -13.429820 2.621444 10.514084 -35.696937 7.766105 15.944478 51.715619 0.000000 0.000000 0.000000 9.618552 41.162627 -20.329462 -0.014853 -0.787298 2.163815 0.740370 -15.232118 -8.353770 -0.239921 3.151960 -8.701995 7.729452 -3.199610 8.965010 5.380682 -2.759592 -5.664599 2.054394 -1.683390 -11.342467 3.915680 0.490904 -22.851551 -7.092776 0.738056 13.115076 -2.925618 -0.189749 7.819067 0.000000 0.000000 0.000000 -59.750007 -70.361189 -106.266592 25.679464 -36.890280 8.694569 47.207333 -38.345447 -3.257871 0.000000 0.000000 0.000000 -7.125000 0.000000 0.000000 16.874635 34.360393 4.577140 0.000000 0.000000 0.000000 26.402248 -78.667901 75.723597 -30.442439 -41.269574 -11.700363 23.740993 -33.280756 38.628397 0.000000 0.000000 0.000000 7.125000 0.000000 0.000000 63.647731 57.455833 -26.179770
-0.593395 17.614100 8.146612 -8.253004 -20.097067 29.044342 0.000000 0.000000 0.000000 -6.328922 -3.400340 -6.067195 0.542459 -4.718983 -13.108694 2.525533 11.545663 -35.853228 7.566893 15.791238 50.987199 0.000000 0.000000 0.000000 10.574350 41.137672 -19.488629 -0.010886 -0.673116 1.849729 0.942443 -17.093873 -9.298666 -0.158410 2.560825 -7.058546 7.931249 -2.910286 9.171004 5.268393 -2.319930 -5.660441 1.747628 -1.491681 -11.465360 3.462481 0.060010 -22.975874 -6.363918 0.155076 12.991460 -2.679030 -0.414718 7.759030 0.000000 0.000000 0.000000 -60.767444 -70.746961 -107.491926 25.060938 -36.266122 8.325966 41.630005 -36.673067 -4.987073 0.000000 0.000000 0.000000 -7.125000 0.000000 0.000000 12.575363 36.383512 2.718952 0.000000 0.000000 0.000000 26.854815 -79.128170 75.952401 -30.263384 -41.117967 -11.582433 24.922424 -31.819761 38.699479 0.000000 0.000000 0.000000 7.125000 0.000000 0.000000 64.663775 57.220209 -26.483114
-0.587223 17.612684 8.074526 -7.941683 -17.779513 27.925345 0.000000 0.000000 0.000000 -5.857652 -6.017949 -5.284668 0.525289 -4.644241 -12.896738 2.439458 12.578561 -36.099856 7.463490 15.710099 50.606149 0.000000 0.000000 0.000000 11.192620 40.700413 -18.149616 -0.009852 -0.642070 1.764509 1.152223 -18.824049 -10.323708 -0.087697 1.910340 -5.257977 7.640402 -2.793428 10.530996 5.026363 -2.057765 -5.598291 1.668857 -1.354399 -12.203265 3.554058 -0.050628 -23.327371 -6.521784 0.019181 13.464157 -2.777425 -0.498797 7.968498 0.000000 0.000000 0.000000 -62.118654 -70.490562 -107.333446 24.603790 -35.796311 8.057063 38.668432 -35.980348 -4.361203 0.000000 0.000000 0.000000 -7.125000 0.000000 0.000000 10.009180 35.411297 2.386533 0.000000 0.000000 0.000000 26.967634 -80.301222 77.628224 -29.508552 -40.467247 -11.089675 26.324675 -31.918864 37.288739 0.000000 0.000000 0.000000 7.125000 0.000000 0.000000 64.015291 56.104967 -24.173247
-0.587834 17.617320 8.075420 -7.712766 -16.747693 27.331980 0.000000 0.000000 0.000000 -5.705880 -7.066781 -4.069986 0.607418 -4.988331 -13.875382 2.566974 12.437062 -36.667255 7.698300 15.892828 51.468704 0.000000 0.000000 0.000000 11.517885 40.467628 -17.298694 -0.009222 -0.619239 1.701581 1.236237 -19.477710 -10.796240 -0.055262 1.517091 -4.172919 7.010273 -2.240615 10.489163 4.551640 -1.471527 -5.433628 1.351891 -1.041920 -11.946987 3.216258 -0.165371 -23.223267 -5.717063 -0.172829 13.519099 -2.473483 -0.520252 7.957504 0.000000 0.000000 0.000000 -62.935513 -70.861820 -107.740624 24.589449 -35.781187 8.048739 37.785949 -37.083849 -2.950661 0.000000 0.000000 0.000000 -7.125000 0.000000 0.000000 9.133911 33.607138 2.579218 0.000000 0.000000 0.000000 31.999356 -81.380990 83.031117 -28.186346 -39.287062 -10.241588 28.614457 -32.910437 36.328956 0.000000 0.000000 0.000000 7.125000 0.000000 0.000000 64.615868 55.058114 -22.726548
-0.574941 17.612513 8.064156 -8.522396 -14.652535 27.868828 0.000000 0.000000 0.000000 -3.981691 -8.968989 -4.598248 0.588763 -4.912608 -13.659555 2.492063 13.191246 -36.803123 7.584412 15.804830 51.051402 0.000000 0.000000 0.000000 12.267997 40.918402 -17.332695 -0.007652 -0.565967 1.555289 1.481574 -21.215583 -11.829356 -0.028413 1.087719 -2.990160 8.146242 -1.794662 9.628388 4.196210 -0.823063 -5.534875 0.168852 -0.834344 -11.556812 3.113995 -0.489117 -23.550534 -4.941478 -0.715876 14.008532 -2.276394 -0.703620 8.150605 0.000000 0.000000 0.000000 -61.077063 -70.024444 -106.075680 25.451979 -36.662104 8.558406 38.088519 -36.845028 -1.741470 0.000000 0.000000 0.000000 -7.125000 0.000000 0.000000 9.251364 32.101032 2.954527 0.000000 0.000000 0.000000 41.138630 -79.806821 85.156574 -25.587765 -36.798472 -8.639614 32.951391 -26.106850 31.475830 0.000000 0.000000 0.000000 7.125000 0.000000 0.000000 62.359864 51.295317 -14.427066
